<svg width="64" height="82" viewBox="0 0 64 82" fill="none" xmlns="http://www.w3.org/2000/svg">
<path id="Vector" fill-rule="evenodd" clip-rule="evenodd" d="M3.93383 36.6962L6.5428 37.6246L3.93926 38.567C3.90396 38.2556 3.88496 37.9359 3.88496 37.6134C3.88496 37.302 3.89853 37.0019 3.93383 36.6962ZM3.4913 41.2875C3.34742 40.9481 3.21982 40.5975 3.11665 40.2385L0.181895 41.3548V39.9412L2.8506 38.9736C2.78816 38.5333 2.74472 38.0733 2.74472 37.6162C2.74472 37.1702 2.77458 36.7299 2.83702 36.3008L0.181895 35.3612V33.9925L3.09493 35.0695C3.20353 34.6937 3.32841 34.3319 3.47773 33.9757L4.5501 34.3768C4.40078 34.7246 4.27318 35.0836 4.17273 35.4538L6.69755 36.3989V35.1957H7.85136V40.0731H6.69212V38.8811L4.18631 39.8375C4.28676 40.1965 4.41164 40.5442 4.55824 40.878L3.4913 41.2875ZM6.69483 42.2607V43.4415H4.82701V42.2607H3.70035V43.4415H0.181895V46.9922C0.181895 48.7535 1.05065 49.6959 2.52753 49.6959C3.42886 49.6959 4.18088 49.1349 4.40893 48.2374C4.64783 48.8993 5.17994 49.2808 5.90753 49.2808C7.13464 49.2808 7.85408 48.3945 7.85408 46.6556V42.2635H6.69483V42.2607ZM6.6894 44.7877V46.6556C6.6894 47.4858 6.3962 47.8784 5.77721 47.8784C5.23424 47.8784 4.82158 47.4297 4.82158 46.7229V44.7905H6.6894V44.7877ZM3.6922 44.7877V46.9585C3.6922 47.7663 3.23611 48.2487 2.51939 48.2487C1.8461 48.2487 1.36829 47.7663 1.36829 46.9473V44.7877H3.6922ZM7.17536 31.3057H7.85408V32.4836H5.28039V31.2804C6.22788 31.0056 6.76542 30.2567 6.76542 29.3761C6.76542 28.3327 6.00797 27.5138 4.8243 27.267V28.3692H3.69763V27.2053C2.1203 27.3202 1.22711 28.2318 1.22711 29.4237C1.22711 30.2371 1.69135 30.9242 2.51939 31.2832L2.51667 32.7445C0.852465 32.2733 0 30.9719 0 29.3536C0 27.2193 1.36014 25.7917 3.69492 25.6739V24.5576H4.82701V25.7384C6.73284 26.0413 7.95724 27.4184 7.95724 29.3648L7.9491 29.6509C7.90837 30.31 7.62331 30.8934 7.17536 31.3057ZM6.69483 62.3337L3.65691 64.1427L5.05235 66.6417C6.21702 68.7227 8.04412 69.121 10.1427 67.8729C12.2033 66.6417 12.8576 64.7625 11.7553 62.788L9.72733 59.1616L8.68754 59.7814L9.25766 60.8023L7.6749 61.7475L7.10478 60.7294L6.13286 61.31L6.69483 62.3337ZM7.92466 64.5185L8.8993 63.938L8.33461 62.9255L9.91465 61.9831L10.6449 63.2873C11.3888 64.6195 10.987 65.7385 9.44498 66.6585C7.9681 67.5391 6.83058 67.3232 6.10299 66.0218L5.36184 64.698L7.35183 63.5116L7.92466 64.5185ZM3.79808 51.5385L0.295919 51.7881L0.388224 53.1652L3.8931 52.9128L3.96912 54.0683L5.09578 53.987L5.01977 52.8315L8.0414 52.6127L7.94638 51.2356L4.92475 51.4544L4.84602 50.2848L3.71935 50.3662L3.79808 51.5385ZM5.36455 58.8811L6.42878 58.4801L6.04598 57.3947L8.87486 56.3317L8.41877 55.0359L5.58174 56.1017L5.19352 55.0051L4.13744 55.4034L4.52295 56.4972L1.21354 57.7453L2.87775 62.4711L4.00984 62.0448L2.80173 58.6147L4.98176 57.7957L5.36455 58.8811ZM11.2368 67.6878L10.5092 68.5825L11.3942 69.3454C10.0341 71.2161 10.2187 73.2943 11.7933 74.6602C13.4304 76.0794 15.5534 75.8353 17.1307 73.8945C18.4067 72.3267 18.5669 70.5822 17.7063 69.2191L16.414 69.5809C17.1416 70.4504 17.0357 71.6816 16.0231 72.9325C14.8991 74.318 13.5879 74.5536 12.5915 73.687C11.6467 72.868 11.5843 71.6115 12.5101 70.3158L13.3625 71.0562L14.0874 70.1643L13.2784 69.4631C14.1308 68.7367 15.043 68.6049 15.8167 69.0677L15.9118 67.6822C14.6792 67.1577 13.3164 67.427 12.1544 68.4927L11.2368 67.6878ZM21.5152 76.3514L20.3153 79.7535L22.9405 80.7407C25.126 81.5625 26.7766 80.6538 27.6046 78.3035C28.4191 75.9952 27.7485 74.1189 25.6771 73.3392L21.8682 71.906L21.4555 73.0728L22.5252 73.4766L21.9007 75.252L20.8284 74.8481L20.4429 75.9419L21.5152 76.3514ZM23.8174 77.2068L24.2002 76.1158L23.1387 75.7147L23.7604 73.9422L25.1287 74.4583C26.5269 74.9855 26.9178 76.1102 26.3069 77.8407C25.7233 79.4954 24.7188 80.0844 23.3505 79.5712L21.9605 79.0495L22.7478 76.817L23.8174 77.2068ZM30.0779 78.3708L30.0752 82H35.3311V80.7659H31.3892V78.3708H34.0714V77.2068H31.3892V75.3193H35.1818V74.0768H28.9322V75.3277L30.0779 75.3193V77.2096H28.9322V78.3708H30.0779ZM48.2783 73.3027L50.5099 76.1018L54.5686 72.6492L53.8057 71.6957L50.7651 74.2872L49.2909 72.4389L51.3624 70.6776L50.6456 69.7801L48.5742 71.5442L47.4122 70.0858L50.3388 67.5952L49.5705 66.636L44.749 70.7421L45.52 71.7069L46.3969 70.9496L47.5616 72.4081L46.6792 73.1597L47.3932 74.0572L48.2783 73.3027ZM59.0535 58.6343L62.4525 59.543L63.7692 54.2871L62.6127 53.9786L61.6245 57.9219L59.382 57.3246L60.0526 54.6405L58.9639 54.3488L58.2907 57.0329L56.5233 56.5589L57.4735 52.767L56.3088 52.4557L54.7451 58.7073L55.9152 59.0214L56.1948 57.8743L57.9676 58.3483L57.6798 59.4926L58.7658 59.7842L59.0535 58.6343ZM52.6655 62.1626L53.5994 62.8021L54.2238 61.8288L57.7776 64.2605L51.3325 64.2465L50.6348 65.3319L50.0104 66.3079L50.9443 66.9474L51.5714 65.9713L57.031 69.7043L57.7368 68.6021L53.2275 65.5198H59.7132L60.392 64.4624L54.9324 60.7294L55.5487 59.7702L54.6147 59.1336L52.6655 62.1626ZM56.3278 39.0381H57.5305V37.8518L59.3603 37.8546V39.0353H60.487L60.4897 37.8518L64 37.8546V36.4971H60.487V33.6784H59.3603V36.4971H57.5332V32.8146H56.3278V39.0381ZM60.487 30.3016L64 30.3044V24.8718H62.8055V28.9441H60.487V26.1703H59.3603V28.9441H57.5305V25.0288H56.3278V31.4852H57.5414L57.5305 30.3016H59.3603V31.4852H60.487V30.3016ZM60.4761 42.8328L63.9864 42.8357V41.4558H60.4761V40.2974H59.3467V41.4558H56.317V42.8357H59.3467V44.008H60.4761V42.8328ZM63.9837 44.5072L60.4327 46.507C60.2535 45.5113 59.4065 44.7512 58.3938 44.7512C57.2482 44.7512 56.3197 45.7104 56.3197 46.8912L56.3224 47.4381V50.728V51.8975H57.4409V50.7252H59.3413V51.8975H60.4653V50.7252L63.9919 50.728V49.3705H60.4653V47.9682L63.9837 45.9825V44.5072ZM59.3413 47.5082V49.3733H57.4409V47.4858L57.4436 47.2586C57.4436 46.7173 57.8699 46.2798 58.3938 46.2798C58.9178 46.2798 59.3413 46.7201 59.3413 47.2614V47.5082ZM37.7826 73.6954L38.5645 75.7484L39.6233 75.3165L39.3002 74.4639L40.8531 73.8328L43.2042 80.0003L44.4476 79.4954L42.0965 73.328L43.6359 72.7025L43.9617 73.5552L45.0204 73.1232L44.2359 71.0618L37.7826 73.6954ZM18.1488 11.9759C22.4709 10.2398 27.1676 9.28625 32.0842 9.28625C37.0035 9.28625 41.7056 10.2398 46.0277 11.9787L49.3126 3.26183C47.7272 2.62236 46.101 2.06984 44.4368 1.60707L43.4133 5.52239C41.9717 5.12132 40.5029 4.79878 39.007 4.55197L39.626 0.549714C37.9537 0.272053 36.2515 0.0897493 34.5275 0L34.3239 4.04713C33.5855 4.00787 32.8335 3.98823 32.0842 3.98823C31.2969 3.98823 30.5177 4.01067 29.7412 4.05274L29.5295 0.00560933C27.8055 0.0981633 26.1061 0.288881 24.4364 0.566542L25.0663 4.5688C23.603 4.81561 22.1614 5.13534 20.7524 5.52519L19.7316 1.60988C18.0755 2.06984 16.4466 2.61956 14.8665 3.25622L18.1488 11.9759ZM40.7093 26.0273C39.7346 25.6374 38.7356 25.3121 37.7039 25.0541L34.6226 33.2521C35.6841 33.4316 36.7076 33.7261 37.6822 34.1188L40.7093 26.0273ZM33.6832 33.1231C33.1565 33.067 32.6244 33.039 32.0842 33.039C31.5602 33.039 31.0471 33.0614 30.534 33.1147L30.5313 23.189H33.6859L33.6832 33.1231ZM26.4753 34.1216C27.4499 33.7289 28.4707 33.4372 29.5295 33.2549L26.4563 25.0569C25.4219 25.3149 24.4174 25.6459 23.4401 26.0385L26.4753 34.1216ZM12.9444 49.0171V15.1676H51.2266L51.2239 49.0227C51.2239 59.9413 42.6558 68.7928 32.0869 68.7928C21.5179 68.7928 12.9444 59.9357 12.9444 49.0171ZM30.8951 37.2544C30.8951 45.6684 27.0074 53.1456 20.994 57.8771C23.5568 61.2988 27.5721 63.5032 32.0869 63.5032C36.599 63.5032 40.617 61.2988 43.1798 57.8771C37.1718 53.1428 33.2868 45.6628 33.2868 37.2544H38.4098C38.4098 43.5985 41.1844 49.2752 45.5498 53.0559C45.9082 51.7769 46.1037 50.4223 46.1037 49.0227V20.4628H18.0701V49.0227C18.0701 50.4223 18.2655 51.7797 18.6239 53.0587C22.9894 49.278 25.7694 43.6013 25.7694 37.2544H30.8951Z" fill="#006B93"/>
</svg>
